<?xml version="1.0" encoding="UTF-8" standalone="no"?>
<!-- Created with Inkscape (http://www.inkscape.org/) -->

<svg
   xmlns:dc="http://purl.org/dc/elements/1.1/"
   xmlns:cc="http://creativecommons.org/ns#"
   xmlns:rdf="http://www.w3.org/1999/02/22-rdf-syntax-ns#"
   xmlns:svg="http://www.w3.org/2000/svg"
   xmlns="http://www.w3.org/2000/svg"
   xmlns:sodipodi="http://sodipodi.sourceforge.net/DTD/sodipodi-0.dtd"
   xmlns:inkscape="http://www.inkscape.org/namespaces/inkscape"
   id="svg3014"
   height="22"
   width="23"
   version="1.1"
   inkscape:version="0.48.2 r9819"
   sodipodi:docname="anthy.svg">
  <defs
     id="defs10" />
  <sodipodi:namedview
     pagecolor="#ffffff"
     bordercolor="#666666"
     borderopacity="1"
     objecttolerance="10"
     gridtolerance="10"
     guidetolerance="10"
     inkscape:pageopacity="0"
     inkscape:pageshadow="2"
     inkscape:window-width="1366"
     inkscape:window-height="744"
     id="namedview8"
     showgrid="false"
     inkscape:zoom="30.341309"
     inkscape:cx="6.1682416"
     inkscape:cy="10.33802"
     inkscape:window-x="0"
     inkscape:window-y="24"
     inkscape:window-maximized="1"
     inkscape:current-layer="g3951" />
  <metadata
     id="metadata3019">
    <rdf:RDF>
      <cc:Work
         rdf:about="">
        <dc:format>image/svg+xml</dc:format>
        <dc:type
           rdf:resource="http://purl.org/dc/dcmitype/StillImage" />
        <dc:title />
      </cc:Work>
    </rdf:RDF>
  </metadata>
  <g
     id="g3951"
     transform="translate(23)">
    <path
       style="fill:#dfdbd2"
       d="M 2 5 C 0.892 5 0 5.892 0 7 L 0 15 C 0 16.108 0.892 17 2 17 L 16.5 17 L 21 17 C 22.108 17 23 16.108 23 15 L 23 7 C 23 5.892 22.108 5 21 5 L 2 5 z M 6.1875 5.625 L 7.5625 5.625 L 7.5625 6.9375 L 6.1875 6.9375 L 6.1875 5.625 z M 11.65625 8.03125 C 12.454697 8.0312556 13.013958 8.2500937 13.375 8.6875 C 13.742977 9.1179731 13.937495 9.8370126 13.9375 10.84375 C 13.937495 12.718372 13.27056 13.65625 11.9375 13.65625 C 11.611175 13.65625 11.315912 13.576361 11.03125 13.4375 L 11.03125 15.84375 L 9.875 15.84375 L 9.875 8.375 C 10.416556 8.152828 11.017489 8.0312556 11.65625 8.03125 z M 16.96875 8.03125 C 17.815798 8.0312556 18.402831 8.1493628 18.6875 8.40625 C 18.979103 8.6631474 19.124995 9.1702919 19.125 9.90625 L 19.125 13.5625 L 18 13.5625 L 18 9.84375 C 17.999997 9.4757728 17.920107 9.2326152 17.78125 9.09375 C 17.642386 8.9548937 17.374921 8.8750047 17 8.875 C 16.729219 8.8750047 16.513846 8.9722576 16.3125 9.125 L 16.3125 13.5625 L 15.15625 13.5625 L 15.15625 8.46875 C 15.670034 8.1771476 16.267501 8.0312556 16.96875 8.03125 z M 5 8.125 L 7.5625 8.125 L 7.5625 13.25 C 7.562497 15.055189 6.544729 15.937498 4.53125 15.9375 L 4.53125 15.0625 C 5.156122 15.062498 5.632005 14.916606 5.9375 14.625 C 6.242992 14.333391 6.374998 13.881817 6.375 13.25 L 6.375 8.96875 L 5 8.96875 L 5 8.125 z M 11.71875 8.875 C 11.461855 8.8750047 11.232596 8.9236308 11.03125 9 L 11.03125 12.5625 C 11.253425 12.722191 11.507004 12.812501 11.8125 12.8125 C 12.472086 12.812501 12.812496 12.155986 12.8125 10.84375 C 12.812496 10.12862 12.711769 9.6353617 12.53125 9.34375 C 12.357671 9.0452038 12.093671 8.8750047 11.71875 8.875 z "
       transform="translate(-23,0)"
       id="path3081" />
  </g>
</svg>
