<?xml version="1.0" encoding="UTF-8" standalone="no"?>
<!-- Created with Inkscape (http://www.inkscape.org/) -->

<svg
   xmlns:dc="http://purl.org/dc/elements/1.1/"
   xmlns:cc="http://creativecommons.org/ns#"
   xmlns:rdf="http://www.w3.org/1999/02/22-rdf-syntax-ns#"
   xmlns:svg="http://www.w3.org/2000/svg"
   xmlns="http://www.w3.org/2000/svg"
   xmlns:sodipodi="http://sodipodi.sourceforge.net/DTD/sodipodi-0.dtd"
   xmlns:inkscape="http://www.inkscape.org/namespaces/inkscape"
   id="svg3014"
   height="22"
   width="23"
   version="1.1"
   inkscape:version="0.48.2 r9819"
   sodipodi:docname="satsuki.svg">
  <defs
     id="defs10" />
  <sodipodi:namedview
     pagecolor="#ffffff"
     bordercolor="#666666"
     borderopacity="1"
     objecttolerance="10"
     gridtolerance="10"
     guidetolerance="10"
     inkscape:pageopacity="0"
     inkscape:pageshadow="2"
     inkscape:window-width="1366"
     inkscape:window-height="744"
     id="namedview8"
     showgrid="false"
     inkscape:zoom="30.341309"
     inkscape:cx="6.1682416"
     inkscape:cy="7.2857015"
     inkscape:window-x="0"
     inkscape:window-y="24"
     inkscape:window-maximized="1"
     inkscape:current-layer="g3951" />
  <metadata
     id="metadata3019">
    <rdf:RDF>
      <cc:Work
         rdf:about="">
        <dc:format>image/svg+xml</dc:format>
        <dc:type
           rdf:resource="http://purl.org/dc/dcmitype/StillImage" />
        <dc:title></dc:title>
      </cc:Work>
    </rdf:RDF>
  </metadata>
  <g
     id="g3951"
     transform="translate(23)">
    <path
       style="fill:#dfdbd2"
       d="M 2,5 C 0.892,5 0,5.892 0,7 l 0,8 c 0,1.108 0.892,2 2,2 l 14.5,0 4.5,0 c 1.108,0 2,-0.892 2,-2 L 23,7 C 23,5.892 22.108,5 21,5 z m 9.125,2.65625 1.3125,0 0,2.5625 1.96875,0 0,1 -1.96875,0 0,2.59375 -1.3125,0 0,-2.59375 -2,0 0,-1 2,0 z m 6.96875,0.25 c 0.730087,6.5e-6 1.407797,0.1007842 2.03125,0.28125 l 0,1 C 19.452328,8.9824238 18.817585,8.8750055 18.21875,8.875 c -0.72189,5.5e-6 -1.093752,0.279293 -1.09375,0.8125 -2e-6,0.2296959 0.07929,0.423049 0.21875,0.5625 0.147656,0.13946 0.397257,0.253518 0.75,0.34375 0.869542,0.205086 1.469521,0.446483 1.78125,0.75 0.319922,0.303524 0.468745,0.776164 0.46875,1.375 -5e-6,0.590636 -0.206639,1.023823 -0.625,1.34375 -0.410168,0.319927 -0.995303,0.499999 -1.75,0.5 -0.787516,-10e-7 -1.49335,-0.143746 -2.125,-0.40625 l 0,-1.09375 c 0.672666,0.319928 1.299206,0.500001 1.90625,0.5 0.43477,10e-7 0.748821,-0.08749 0.9375,-0.21875 0.188671,-0.139454 0.281246,-0.329681 0.28125,-0.625 -4e-6,-0.262503 -0.06289,-0.477339 -0.21875,-0.625 -0.147662,-0.147656 -0.418747,-0.276558 -0.8125,-0.375 -0.779312,-0.196875 -1.328121,-0.438272 -1.65625,-0.75 -0.319928,-0.319923 -0.500001,-0.756237 -0.5,-1.28125 -10e-7,-0.5742233 0.208196,-1.0089734 0.59375,-1.3125 0.385552,-0.3117177 0.955844,-0.4687435 1.71875,-0.46875 z"
       transform="translate(-23,0)"
       id="path3081"
       inkscape:connector-curvature="0"
       sodipodi:nodetypes="sssscssssscccccccccccccccccccccccsccscccccscc" />
  </g>
</svg>
